<svg width="207" height="151" viewBox="0 0 207 151" fill="none" xmlns="http://www.w3.org/2000/svg">
<g id="Vector">
<circle id="Ellipse 707" cx="35.1891" cy="59" r="4" fill="#B468FF"/>
<circle id="Ellipse 709" cx="110.689" cy="15.5" r="8.5" fill="#B468FF"/>
<circle id="Ellipse 711" cx="187.189" cy="95" r="8" fill="#FE8C00"/>
<path id="Star 1" d="M152.189 5L154.271 10.9183L160.189 13L154.271 15.0817L152.189 21L150.107 15.0817L144.189 13L150.107 10.9183L152.189 5Z" fill="#FB46FF"/>
<path id="Vector 36" d="M28.8425 78.5306C28.8425 78.5306 27.1961 85.177 19.3985 85.4631C14.2001 85.6539 12.9772 80.2666 6.90458 83.9134C4.20019 85.5374 2.18909 90.4719 2.18909 90.4719" stroke="#FB46FF" stroke-width="3" stroke-linecap="round"/>
<path id="Star 2" d="M31.6891 117L34.5773 124.612L42.1891 127.5L34.5773 130.388L31.6891 138L28.8009 130.388L21.1891 127.5L28.8009 124.612L31.6891 117Z" fill="#FE8C00"/>
<circle id="Ellipse 714" cx="101.189" cy="3" r="2" fill="#FB46FF"/>
<path id="Vector 34" d="M38.5133 3.76226C39.4964 12.3082 59.3559 20.8261 59.7984 13.8343C60.4996 2.75464 33.7161 11.3933 70.2565 25.9123" stroke="#FE8C00" stroke-width="3" stroke-linecap="round"/>
<path id="Vector 35" d="M185.189 133.81C190.153 133.106 200.977 134.293 204.559 144.676" stroke="#B468FF" stroke-width="3" stroke-linecap="round"/>
<path id="Vector 33" d="M180.268 37.3673C180.268 37.3673 187.527 41.06 190.569 37.7505C193.344 34.7316 190.135 30.02 193.492 27.6657C196.224 25.75 202.011 27.0118 202.011 27.0118" stroke="#FE8C00" stroke-width="3" stroke-linecap="round"/>
<rect id="Rectangle 5639" x="177.189" y="74" width="7" height="7" rx="2" fill="#FE8C00"/>
</g>
</svg>
